<mxfile host="65bd71144e" pages="5">
    <diagram id="p5JAJdNvlNGd29jAvPLw" name="01 - authorization">
        <mxGraphModel dx="419" dy="612" grid="1" gridSize="10" guides="1" tooltips="1" connect="1" arrows="1" fold="1" page="1" pageScale="1" pageWidth="1920" pageHeight="1200" math="0" shadow="0">
            <root>
                <mxCell id="0"/>
                <mxCell id="1" parent="0"/>
                <mxCell id="mMcEd72BEuslU-NjFMrc-3" style="edgeStyle=orthogonalEdgeStyle;rounded=0;orthogonalLoop=1;jettySize=auto;html=1;exitX=1;exitY=0.5;exitDx=0;exitDy=0;fontSize=15;" parent="1" source="mMcEd72BEuslU-NjFMrc-1" target="mMcEd72BEuslU-NjFMrc-2" edge="1">
                    <mxGeometry relative="1" as="geometry"/>
                </mxCell>
                <mxCell id="mMcEd72BEuslU-NjFMrc-1" value="Authentication" style="rounded=0;whiteSpace=wrap;html=1;fillColor=#dae8fc;strokeColor=#6c8ebf;fontStyle=1;fontSize=15;" parent="1" vertex="1">
                    <mxGeometry x="560" y="330" width="120" height="60" as="geometry"/>
                </mxCell>
                <mxCell id="mMcEd72BEuslU-NjFMrc-2" value="Figure out &lt;b&gt;who&lt;/b&gt;&amp;nbsp;is making a request" style="rounded=0;whiteSpace=wrap;html=1;fillColor=#f5f5f5;strokeColor=#666666;fontStyle=0;fontSize=15;fontColor=#333333;" parent="1" vertex="1">
                    <mxGeometry x="710" y="330" width="280" height="60" as="geometry"/>
                </mxCell>
                <mxCell id="mMcEd72BEuslU-NjFMrc-4" style="edgeStyle=orthogonalEdgeStyle;rounded=0;orthogonalLoop=1;jettySize=auto;html=1;exitX=1;exitY=0.5;exitDx=0;exitDy=0;fontSize=15;" parent="1" source="mMcEd72BEuslU-NjFMrc-5" target="mMcEd72BEuslU-NjFMrc-6" edge="1">
                    <mxGeometry relative="1" as="geometry"/>
                </mxCell>
                <mxCell id="mMcEd72BEuslU-NjFMrc-5" value="Authorization" style="rounded=0;whiteSpace=wrap;html=1;fillColor=#dae8fc;strokeColor=#6c8ebf;fontStyle=1;fontSize=15;" parent="1" vertex="1">
                    <mxGeometry x="560" y="410" width="120" height="60" as="geometry"/>
                </mxCell>
                <mxCell id="mMcEd72BEuslU-NjFMrc-6" value="Figure out if the person making the request is allowed to make it" style="rounded=0;whiteSpace=wrap;html=1;fillColor=#f5f5f5;strokeColor=#666666;fontStyle=0;fontSize=15;fontColor=#333333;" parent="1" vertex="1">
                    <mxGeometry x="710" y="410" width="280" height="60" as="geometry"/>
                </mxCell>
            </root>
        </mxGraphModel>
    </diagram>
    <diagram id="6V-cOMbSUckGlFKqA8RH" name="02 - guard">
        <mxGraphModel dx="419" dy="612" grid="1" gridSize="10" guides="1" tooltips="1" connect="1" arrows="1" fold="1" page="1" pageScale="1" pageWidth="1920" pageHeight="1200" math="0" shadow="0">
            <root>
                <mxCell id="wWPQLz0iknvMWFQdG_m1-0"/>
                <mxCell id="wWPQLz0iknvMWFQdG_m1-1" parent="wWPQLz0iknvMWFQdG_m1-0"/>
                <mxCell id="wWPQLz0iknvMWFQdG_m1-6" style="edgeStyle=orthogonalEdgeStyle;rounded=0;orthogonalLoop=1;jettySize=auto;html=1;exitX=1;exitY=0.5;exitDx=0;exitDy=0;fontSize=16;" parent="wWPQLz0iknvMWFQdG_m1-1" source="wWPQLz0iknvMWFQdG_m1-2" target="wWPQLz0iknvMWFQdG_m1-5" edge="1">
                    <mxGeometry relative="1" as="geometry"/>
                </mxCell>
                <mxCell id="wWPQLz0iknvMWFQdG_m1-2" value="PATCH /reports/:id" style="rounded=0;whiteSpace=wrap;html=1;fontSize=12;fontStyle=1;fillColor=#f5f5f5;strokeColor=#666666;fontColor=#333333;" parent="wWPQLz0iknvMWFQdG_m1-1" vertex="1">
                    <mxGeometry x="510" y="360" width="120" height="30" as="geometry"/>
                </mxCell>
                <mxCell id="wWPQLz0iknvMWFQdG_m1-3" value="{ approved: true }" style="rounded=0;whiteSpace=wrap;html=1;fontSize=12;fontStyle=0;fillColor=#f5f5f5;strokeColor=#666666;fontColor=#333333;" parent="wWPQLz0iknvMWFQdG_m1-1" vertex="1">
                    <mxGeometry x="510" y="390" width="120" height="30" as="geometry"/>
                </mxCell>
                <mxCell id="wWPQLz0iknvMWFQdG_m1-4" value="Route Handler" style="rounded=0;whiteSpace=wrap;html=1;fontSize=16;fillColor=#dae8fc;strokeColor=#6c8ebf;" parent="wWPQLz0iknvMWFQdG_m1-1" vertex="1">
                    <mxGeometry x="850" y="337.5" width="80" height="75" as="geometry"/>
                </mxCell>
                <mxCell id="wWPQLz0iknvMWFQdG_m1-7" style="edgeStyle=orthogonalEdgeStyle;rounded=0;orthogonalLoop=1;jettySize=auto;html=1;exitX=1;exitY=0.5;exitDx=0;exitDy=0;fontSize=16;" parent="wWPQLz0iknvMWFQdG_m1-1" source="wWPQLz0iknvMWFQdG_m1-5" target="wWPQLz0iknvMWFQdG_m1-4" edge="1">
                    <mxGeometry relative="1" as="geometry"/>
                </mxCell>
                <mxCell id="wWPQLz0iknvMWFQdG_m1-5" value="AdminGuard" style="rounded=0;whiteSpace=wrap;html=1;fontSize=16;" parent="wWPQLz0iknvMWFQdG_m1-1" vertex="1">
                    <mxGeometry x="680" y="345" width="120" height="60" as="geometry"/>
                </mxCell>
                <mxCell id="wWPQLz0iknvMWFQdG_m1-8" value="Is request.currentUser an administrator?" style="text;html=1;strokeColor=none;fillColor=none;align=center;verticalAlign=middle;whiteSpace=wrap;rounded=0;fontSize=12;fontStyle=2" parent="wWPQLz0iknvMWFQdG_m1-1" vertex="1">
                    <mxGeometry x="675" y="405" width="130" height="35" as="geometry"/>
                </mxCell>
            </root>
        </mxGraphModel>
    </diagram>
    <diagram id="7uNkbqKbhZtIxvbhFQ35" name="03 - signup">
        <mxGraphModel dx="574" dy="353" grid="1" gridSize="10" guides="1" tooltips="1" connect="1" arrows="1" fold="1" page="1" pageScale="1" pageWidth="1920" pageHeight="1200" math="0" shadow="0">
            <root>
                <mxCell id="ue8gjduO0WYT2YLM40vn-0"/>
                <mxCell id="ue8gjduO0WYT2YLM40vn-1" parent="ue8gjduO0WYT2YLM40vn-0"/>
                <mxCell id="ue8gjduO0WYT2YLM40vn-18" style="edgeStyle=orthogonalEdgeStyle;rounded=0;orthogonalLoop=1;jettySize=auto;html=1;exitX=1;exitY=0.5;exitDx=0;exitDy=0;fontSize=12;" edge="1" parent="ue8gjduO0WYT2YLM40vn-1" source="ue8gjduO0WYT2YLM40vn-2" target="ue8gjduO0WYT2YLM40vn-11">
                    <mxGeometry relative="1" as="geometry"/>
                </mxCell>
                <mxCell id="ue8gjduO0WYT2YLM40vn-2" value="Signup Handler" style="rounded=0;whiteSpace=wrap;html=1;fontSize=18;fontStyle=1;fillColor=#dae8fc;strokeColor=#6c8ebf;" vertex="1" parent="ue8gjduO0WYT2YLM40vn-1">
                    <mxGeometry x="730" y="360" width="120" height="60" as="geometry"/>
                </mxCell>
                <mxCell id="ue8gjduO0WYT2YLM40vn-4" style="edgeStyle=orthogonalEdgeStyle;rounded=0;orthogonalLoop=1;jettySize=auto;html=1;exitX=1;exitY=0.5;exitDx=0;exitDy=0;fontSize=18;" edge="1" parent="ue8gjduO0WYT2YLM40vn-1" source="ue8gjduO0WYT2YLM40vn-3" target="ue8gjduO0WYT2YLM40vn-2">
                    <mxGeometry relative="1" as="geometry"/>
                </mxCell>
                <mxCell id="ue8gjduO0WYT2YLM40vn-3" value="CreateUserDto" style="rounded=0;whiteSpace=wrap;html=1;fontSize=18;fontStyle=1;fillColor=#f5f5f5;strokeColor=#666666;fontColor=#333333;" vertex="1" parent="ue8gjduO0WYT2YLM40vn-1">
                    <mxGeometry x="510" y="375" width="200" height="30" as="geometry"/>
                </mxCell>
                <mxCell id="ue8gjduO0WYT2YLM40vn-5" value="email" style="rounded=0;whiteSpace=wrap;html=1;fontSize=15;fillColor=#f5f5f5;strokeColor=#666666;fontColor=#333333;" vertex="1" parent="ue8gjduO0WYT2YLM40vn-1">
                    <mxGeometry x="510" y="405" width="100" height="30" as="geometry"/>
                </mxCell>
                <mxCell id="ue8gjduO0WYT2YLM40vn-6" value="asdf@asdf.com" style="rounded=0;whiteSpace=wrap;html=1;fontSize=12;fontStyle=2" vertex="1" parent="ue8gjduO0WYT2YLM40vn-1">
                    <mxGeometry x="610" y="405" width="100" height="30" as="geometry"/>
                </mxCell>
                <mxCell id="ue8gjduO0WYT2YLM40vn-7" value="password" style="rounded=0;whiteSpace=wrap;html=1;fontSize=15;fillColor=#f5f5f5;strokeColor=#666666;fontColor=#333333;" vertex="1" parent="ue8gjduO0WYT2YLM40vn-1">
                    <mxGeometry x="510" y="435" width="100" height="30" as="geometry"/>
                </mxCell>
                <mxCell id="ue8gjduO0WYT2YLM40vn-8" value="laksdjf" style="rounded=0;whiteSpace=wrap;html=1;fontSize=12;fontStyle=2" vertex="1" parent="ue8gjduO0WYT2YLM40vn-1">
                    <mxGeometry x="610" y="435" width="100" height="30" as="geometry"/>
                </mxCell>
                <mxCell id="ue8gjduO0WYT2YLM40vn-9" value="admin" style="rounded=0;whiteSpace=wrap;html=1;fontSize=15;fillColor=#f5f5f5;strokeColor=#666666;fontColor=#333333;" vertex="1" parent="ue8gjduO0WYT2YLM40vn-1">
                    <mxGeometry x="510" y="465" width="100" height="30" as="geometry"/>
                </mxCell>
                <mxCell id="ue8gjduO0WYT2YLM40vn-10" value="true" style="rounded=0;whiteSpace=wrap;html=1;fontSize=12;fontStyle=2" vertex="1" parent="ue8gjduO0WYT2YLM40vn-1">
                    <mxGeometry x="610" y="465" width="100" height="30" as="geometry"/>
                </mxCell>
                <mxCell id="ue8gjduO0WYT2YLM40vn-11" value="User Entity" style="rounded=0;whiteSpace=wrap;html=1;fontSize=18;fontStyle=1;fillColor=#f5f5f5;strokeColor=#666666;fontColor=#333333;" vertex="1" parent="ue8gjduO0WYT2YLM40vn-1">
                    <mxGeometry x="880" y="375" width="200" height="30" as="geometry"/>
                </mxCell>
                <mxCell id="ue8gjduO0WYT2YLM40vn-12" value="email" style="rounded=0;whiteSpace=wrap;html=1;fontSize=15;fillColor=#f5f5f5;strokeColor=#666666;fontColor=#333333;" vertex="1" parent="ue8gjduO0WYT2YLM40vn-1">
                    <mxGeometry x="880" y="405" width="100" height="30" as="geometry"/>
                </mxCell>
                <mxCell id="ue8gjduO0WYT2YLM40vn-13" value="asdf@asdf.com" style="rounded=0;whiteSpace=wrap;html=1;fontSize=12;fontStyle=2" vertex="1" parent="ue8gjduO0WYT2YLM40vn-1">
                    <mxGeometry x="980" y="405" width="100" height="30" as="geometry"/>
                </mxCell>
                <mxCell id="ue8gjduO0WYT2YLM40vn-14" value="password" style="rounded=0;whiteSpace=wrap;html=1;fontSize=15;fillColor=#f5f5f5;strokeColor=#666666;fontColor=#333333;" vertex="1" parent="ue8gjduO0WYT2YLM40vn-1">
                    <mxGeometry x="880" y="435" width="100" height="30" as="geometry"/>
                </mxCell>
                <mxCell id="ue8gjduO0WYT2YLM40vn-15" value="laksdjf" style="rounded=0;whiteSpace=wrap;html=1;fontSize=12;fontStyle=2" vertex="1" parent="ue8gjduO0WYT2YLM40vn-1">
                    <mxGeometry x="980" y="435" width="100" height="30" as="geometry"/>
                </mxCell>
                <mxCell id="ue8gjduO0WYT2YLM40vn-16" value="admin" style="rounded=0;whiteSpace=wrap;html=1;fontSize=15;fillColor=#f5f5f5;strokeColor=#666666;fontColor=#333333;" vertex="1" parent="ue8gjduO0WYT2YLM40vn-1">
                    <mxGeometry x="880" y="465" width="100" height="30" as="geometry"/>
                </mxCell>
                <mxCell id="ue8gjduO0WYT2YLM40vn-17" value="true" style="rounded=0;whiteSpace=wrap;html=1;fontSize=12;fontStyle=2" vertex="1" parent="ue8gjduO0WYT2YLM40vn-1">
                    <mxGeometry x="980" y="465" width="100" height="30" as="geometry"/>
                </mxCell>
                <mxCell id="bln67vuwYyA9zaSV6W8L-0" value="Note: Not appropriate for production apps" style="rounded=0;whiteSpace=wrap;html=1;fontSize=16;fillColor=#f8cecc;strokeColor=#b85450;fontStyle=1" vertex="1" parent="ue8gjduO0WYT2YLM40vn-1">
                    <mxGeometry x="670" y="540" width="240" height="60" as="geometry"/>
                </mxCell>
            </root>
        </mxGraphModel>
    </diagram>
    <diagram id="d7YN3WOo5sKetC4p9htC" name="04 - order">
        <mxGraphModel dx="562" dy="346" grid="1" gridSize="10" guides="1" tooltips="1" connect="1" arrows="1" fold="1" page="1" pageScale="1" pageWidth="1920" pageHeight="1200" math="0" shadow="0">
            <root>
                <mxCell id="eyJU9sOL4_wV_U96sSO8-0"/>
                <mxCell id="eyJU9sOL4_wV_U96sSO8-1" parent="eyJU9sOL4_wV_U96sSO8-0"/>
                <mxCell id="eyJU9sOL4_wV_U96sSO8-11" style="edgeStyle=orthogonalEdgeStyle;rounded=0;orthogonalLoop=1;jettySize=auto;html=1;exitX=0.5;exitY=1;exitDx=0;exitDy=0;fontSize=16;" edge="1" parent="eyJU9sOL4_wV_U96sSO8-1" source="eyJU9sOL4_wV_U96sSO8-3" target="eyJU9sOL4_wV_U96sSO8-10">
                    <mxGeometry relative="1" as="geometry"/>
                </mxCell>
                <mxCell id="eyJU9sOL4_wV_U96sSO8-3" value="Request" style="rounded=0;whiteSpace=wrap;html=1;fontSize=12;fontStyle=1;fillColor=#f5f5f5;strokeColor=#666666;fontColor=#333333;" vertex="1" parent="eyJU9sOL4_wV_U96sSO8-1">
                    <mxGeometry x="660" y="270" width="180" height="30" as="geometry"/>
                </mxCell>
                <mxCell id="eyJU9sOL4_wV_U96sSO8-13" style="edgeStyle=orthogonalEdgeStyle;rounded=0;orthogonalLoop=1;jettySize=auto;html=1;exitX=0.5;exitY=1;exitDx=0;exitDy=0;fontSize=16;" edge="1" parent="eyJU9sOL4_wV_U96sSO8-1" source="eyJU9sOL4_wV_U96sSO8-10" target="eyJU9sOL4_wV_U96sSO8-12">
                    <mxGeometry relative="1" as="geometry"/>
                </mxCell>
                <mxCell id="eyJU9sOL4_wV_U96sSO8-10" value="Middlewares" style="rounded=0;whiteSpace=wrap;html=1;fontSize=16;fillColor=#dae8fc;strokeColor=#6c8ebf;" vertex="1" parent="eyJU9sOL4_wV_U96sSO8-1">
                    <mxGeometry x="660" y="320" width="180" height="40" as="geometry"/>
                </mxCell>
                <mxCell id="eyJU9sOL4_wV_U96sSO8-18" style="edgeStyle=orthogonalEdgeStyle;rounded=0;orthogonalLoop=1;jettySize=auto;html=1;exitX=0.5;exitY=1;exitDx=0;exitDy=0;fontSize=16;" edge="1" parent="eyJU9sOL4_wV_U96sSO8-1" source="eyJU9sOL4_wV_U96sSO8-12" target="eyJU9sOL4_wV_U96sSO8-17">
                    <mxGeometry relative="1" as="geometry"/>
                </mxCell>
                <mxCell id="eyJU9sOL4_wV_U96sSO8-12" value="Guards" style="rounded=0;whiteSpace=wrap;html=1;fontSize=16;fillColor=#dae8fc;strokeColor=#6c8ebf;" vertex="1" parent="eyJU9sOL4_wV_U96sSO8-1">
                    <mxGeometry x="660" y="380" width="180" height="40" as="geometry"/>
                </mxCell>
                <mxCell id="eyJU9sOL4_wV_U96sSO8-22" style="edgeStyle=orthogonalEdgeStyle;rounded=0;orthogonalLoop=1;jettySize=auto;html=1;exitX=0.5;exitY=0;exitDx=0;exitDy=0;fontSize=16;" edge="1" parent="eyJU9sOL4_wV_U96sSO8-1" source="eyJU9sOL4_wV_U96sSO8-16">
                    <mxGeometry relative="1" as="geometry">
                        <mxPoint x="750" y="440" as="targetPoint"/>
                        <Array as="points">
                            <mxPoint x="935" y="440"/>
                        </Array>
                    </mxGeometry>
                </mxCell>
                <mxCell id="eyJU9sOL4_wV_U96sSO8-23" style="edgeStyle=orthogonalEdgeStyle;rounded=0;orthogonalLoop=1;jettySize=auto;html=1;exitX=0.5;exitY=1;exitDx=0;exitDy=0;fontSize=16;" edge="1" parent="eyJU9sOL4_wV_U96sSO8-1" source="eyJU9sOL4_wV_U96sSO8-16">
                    <mxGeometry relative="1" as="geometry">
                        <mxPoint x="750" y="530" as="targetPoint"/>
                        <Array as="points">
                            <mxPoint x="935" y="530"/>
                        </Array>
                    </mxGeometry>
                </mxCell>
                <mxCell id="eyJU9sOL4_wV_U96sSO8-16" value="Interceptor" style="rounded=0;whiteSpace=wrap;html=1;fontSize=16;fillColor=#dae8fc;strokeColor=#6c8ebf;" vertex="1" parent="eyJU9sOL4_wV_U96sSO8-1">
                    <mxGeometry x="880" y="470" width="110" height="40" as="geometry"/>
                </mxCell>
                <mxCell id="eyJU9sOL4_wV_U96sSO8-21" style="edgeStyle=orthogonalEdgeStyle;rounded=0;orthogonalLoop=1;jettySize=auto;html=1;exitX=0.5;exitY=1;exitDx=0;exitDy=0;fontSize=16;" edge="1" parent="eyJU9sOL4_wV_U96sSO8-1" source="eyJU9sOL4_wV_U96sSO8-17" target="eyJU9sOL4_wV_U96sSO8-20">
                    <mxGeometry relative="1" as="geometry"/>
                </mxCell>
                <mxCell id="eyJU9sOL4_wV_U96sSO8-17" value="Request Handler" style="rounded=0;whiteSpace=wrap;html=1;fontSize=16;fillColor=#d5e8d4;strokeColor=#82b366;" vertex="1" parent="eyJU9sOL4_wV_U96sSO8-1">
                    <mxGeometry x="660" y="470" width="180" height="40" as="geometry"/>
                </mxCell>
                <mxCell id="eyJU9sOL4_wV_U96sSO8-20" value="Reponse" style="rounded=0;whiteSpace=wrap;html=1;fontSize=12;fontStyle=1;fillColor=#f5f5f5;strokeColor=#666666;fontColor=#333333;" vertex="1" parent="eyJU9sOL4_wV_U96sSO8-1">
                    <mxGeometry x="660" y="550" width="180" height="30" as="geometry"/>
                </mxCell>
            </root>
        </mxGraphModel>
    </diagram>
    <diagram name="05 - us" id="1vXRY3RZJt2aFv8RrmwI">
        <mxGraphModel dx="598" dy="369" grid="1" gridSize="10" guides="1" tooltips="1" connect="1" arrows="1" fold="1" page="1" pageScale="1" pageWidth="1920" pageHeight="1200" math="0" shadow="0">
            <root>
                <mxCell id="6Xv_D2nyDLQXDqu8kT1J-0"/>
                <mxCell id="6Xv_D2nyDLQXDqu8kT1J-1" parent="6Xv_D2nyDLQXDqu8kT1J-0"/>
                <mxCell id="6Xv_D2nyDLQXDqu8kT1J-2" style="edgeStyle=orthogonalEdgeStyle;rounded=0;orthogonalLoop=1;jettySize=auto;html=1;exitX=0.5;exitY=1;exitDx=0;exitDy=0;fontSize=16;" edge="1" parent="6Xv_D2nyDLQXDqu8kT1J-1" source="6Xv_D2nyDLQXDqu8kT1J-3" target="6Xv_D2nyDLQXDqu8kT1J-5">
                    <mxGeometry relative="1" as="geometry"/>
                </mxCell>
                <mxCell id="6Xv_D2nyDLQXDqu8kT1J-3" value="Request" style="rounded=0;whiteSpace=wrap;html=1;fontSize=12;fontStyle=1;fillColor=#f5f5f5;strokeColor=#666666;fontColor=#333333;" vertex="1" parent="6Xv_D2nyDLQXDqu8kT1J-1">
                    <mxGeometry x="660" y="270" width="180" height="30" as="geometry"/>
                </mxCell>
                <mxCell id="6Xv_D2nyDLQXDqu8kT1J-4" style="edgeStyle=orthogonalEdgeStyle;rounded=0;orthogonalLoop=1;jettySize=auto;html=1;exitX=0.5;exitY=1;exitDx=0;exitDy=0;fontSize=16;" edge="1" parent="6Xv_D2nyDLQXDqu8kT1J-1" source="6Xv_D2nyDLQXDqu8kT1J-5" target="6Xv_D2nyDLQXDqu8kT1J-7">
                    <mxGeometry relative="1" as="geometry"/>
                </mxCell>
                <mxCell id="6Xv_D2nyDLQXDqu8kT1J-5" value="Cookie-Session Middleware" style="rounded=0;whiteSpace=wrap;html=1;fontSize=16;fillColor=#dae8fc;strokeColor=#6c8ebf;" vertex="1" parent="6Xv_D2nyDLQXDqu8kT1J-1">
                    <mxGeometry x="660" y="320" width="180" height="40" as="geometry"/>
                </mxCell>
                <mxCell id="6Xv_D2nyDLQXDqu8kT1J-6" style="edgeStyle=orthogonalEdgeStyle;rounded=0;orthogonalLoop=1;jettySize=auto;html=1;exitX=0.5;exitY=1;exitDx=0;exitDy=0;fontSize=16;" edge="1" parent="6Xv_D2nyDLQXDqu8kT1J-1" source="6Xv_D2nyDLQXDqu8kT1J-7" target="6Xv_D2nyDLQXDqu8kT1J-12">
                    <mxGeometry relative="1" as="geometry"/>
                </mxCell>
                <mxCell id="6Xv_D2nyDLQXDqu8kT1J-7" value="AdminGuard" style="rounded=0;whiteSpace=wrap;html=1;fontSize=16;fillColor=#dae8fc;strokeColor=#6c8ebf;" vertex="1" parent="6Xv_D2nyDLQXDqu8kT1J-1">
                    <mxGeometry x="660" y="410" width="180" height="40" as="geometry"/>
                </mxCell>
                <mxCell id="6Xv_D2nyDLQXDqu8kT1J-10" value="CurrentUser Middleware" style="rounded=0;whiteSpace=wrap;html=1;fontSize=16;fillColor=#dae8fc;strokeColor=#6c8ebf;" vertex="1" parent="6Xv_D2nyDLQXDqu8kT1J-1">
                    <mxGeometry x="680" y="360" width="140" height="40" as="geometry"/>
                </mxCell>
                <mxCell id="6Xv_D2nyDLQXDqu8kT1J-11" style="edgeStyle=orthogonalEdgeStyle;rounded=0;orthogonalLoop=1;jettySize=auto;html=1;exitX=0.5;exitY=1;exitDx=0;exitDy=0;fontSize=16;" edge="1" parent="6Xv_D2nyDLQXDqu8kT1J-1" source="6Xv_D2nyDLQXDqu8kT1J-12" target="6Xv_D2nyDLQXDqu8kT1J-13">
                    <mxGeometry relative="1" as="geometry"/>
                </mxCell>
                <mxCell id="6Xv_D2nyDLQXDqu8kT1J-12" value="Request Handler" style="rounded=0;whiteSpace=wrap;html=1;fontSize=16;fillColor=#d5e8d4;strokeColor=#82b366;" vertex="1" parent="6Xv_D2nyDLQXDqu8kT1J-1">
                    <mxGeometry x="660" y="470" width="180" height="40" as="geometry"/>
                </mxCell>
                <mxCell id="6Xv_D2nyDLQXDqu8kT1J-13" value="Reponse" style="rounded=0;whiteSpace=wrap;html=1;fontSize=12;fontStyle=1;fillColor=#f5f5f5;strokeColor=#666666;fontColor=#333333;" vertex="1" parent="6Xv_D2nyDLQXDqu8kT1J-1">
                    <mxGeometry x="660" y="550" width="180" height="30" as="geometry"/>
                </mxCell>
            </root>
        </mxGraphModel>
    </diagram>
</mxfile>